<svg width="600.27" height="600.27" xmlns="http://www.w3.org/2000/svg">

 <g>
  <title>background</title>
  <rect fill="none" id="canvas_background" height="402" width="582" y="-1" x="-1"/>
 </g>
 <g>
  <title>Layer 1</title>
  <g id="svg_1">
   <g id="svg_2">
    <path fill="#0075ff" id="svg_3" d="m530.099976,13.383c-8.03302,-8.034 -18.929993,-12.547 -30.292999,-12.547c-11.360992,0 -22.257996,4.513 -30.292999,12.547l-66.25,66.250003l-344.623978,0c-32.059,0 -58.139999,26.081993 -58.139999,58.139992l0,403.518997c0,32.059021 26.082001,58.140991 58.139999,58.140991l403.51799,0c32.059021,0 58.141022,-26.08197 58.141022,-58.140991l0,-343.277985l66.924011,-66.923004c8.032959,-8.033997 12.546997,-18.929993 12.546997,-30.291992c0,-11.362999 -4.514038,-22.259003 -12.546997,-30.292999l-57.123047,-57.123012zm-76.992981,109.090999l24.35199,24.350998l16.722992,16.722l-16.722992,16.723007l-190.723999,190.722c-2.152985,2.153992 -4.899994,3.61499 -7.889008,4.199005l-48.546997,9.472992c-0.807007,0.156006 -1.606003,0.231995 -2.389008,0.231995c-7.474991,0 -13.474991,-6.872986 -11.967987,-14.589996l9.472,-48.549011c0.582993,-2.987976 2.044998,-5.733978 4.197998,-7.888977l191.395981,-191.395012l16.051025,-16.050003l16.048004,16.051003zm71.367981,10.781006l-4.950989,-4.949997l-47.894989,-47.895004l-4.277008,-4.277l32.455017,-32.457005l57.122986,57.123005l-32.455017,32.456001zm-47.015961,408.038025c0,8.450989 -6.850006,15.301025 -15.298981,15.301025l-403.520035,0c-8.450001,0 -15.299999,-6.850037 -15.299999,-15.301025l0,-403.519028c0,-8.449997 6.849998,-15.300003 15.299999,-15.300003l301.784012,0l-161.104004,161.102997c-8.209991,8.209991 -13.727997,18.576019 -15.951996,29.973999l-9.473007,48.550995c-3.162994,16.210999 1.041,32.81601 11.535004,45.555023c10.511002,12.761993 25.996002,20.079987 42.481003,20.079987c3.539001,0 7.102005,-0.346008 10.589996,-1.024994l48.549988,-9.472992c11.401001,-2.22702 21.767029,-7.742004 29.978027,-15.955017l160.429993,-160.429993l0,300.439026l0,0l0,0z"/>
    <path fill="#0075ff" id="svg_4" d="m462.15799,599.934021l-403.51799,0c-32.334,0 -58.639999,-26.30603 -58.639999,-58.640991l0,-403.519028c0,-32.334 26.306,-58.639999 58.639999,-58.639999l344.416977,0l66.103027,-66.104003c8.186981,-8.186 19.070007,-12.694 30.645996,-12.694c11.578003,0 22.462006,4.508 30.646027,12.694l57.122986,57.122001c8.185974,8.186996 12.692993,19.07 12.692993,30.645996c0,11.577003 -4.507996,22.460007 -12.692993,30.646004l-66.777039,66.776993l0,343.071976c0.001038,32.335022 -26.304962,58.641052 -58.639984,58.641052zm-403.51799,-519.800018c-31.782999,0 -57.639999,25.856995 -57.639999,57.639999l0,403.519028c0,31.78302 25.857,57.640991 57.639999,57.640991l403.51799,0c31.78302,0 57.641022,-25.856995 57.641022,-57.640991l0,-343.486023l67.070007,-67.069992c7.995972,-7.997002 12.399963,-18.629005 12.399963,-29.939003c0,-11.308998 -4.403992,-21.942001 -12.399963,-29.939003l-57.123047,-57.121999c-7.995972,-7.99701 -18.628967,-12.40101 -29.938965,-12.40101c-11.30899,0 -21.94101,4.404 -29.938995,12.401l-66.396027,66.397002l-344.831985,0zm403.520004,476.959991l-403.520004,0c-8.711998,0 -15.799999,-7.088013 -15.799999,-15.801025l0,-403.518967c0,-8.712006 7.088001,-15.800003 15.799999,-15.800003l302.991013,0l-161.957016,161.955994c-8.140991,8.139984 -13.608994,18.416992 -15.815002,29.716003l-9.472992,48.550995c-3.134995,16.065002 1.031006,32.519012 11.429993,45.140991c10.416,12.645996 25.759003,19.89801 42.095001,19.89801c3.503006,0 7.034012,-0.34201 10.49501,-1.016998l48.549988,-9.472992c11.304993,-2.207001 21.582001,-7.677002 29.720001,-15.817017l161.28302,-161.28299l0,301.645996c0,8.713989 -7.087006,15.802002 -15.799011,15.802002zm-403.520004,-434.119995c-8.160999,0 -14.799999,6.639008 -14.799999,14.800003l0,403.519028c0,8.16095 6.639,14.800964 14.799999,14.800964l403.520004,0c8.159973,0 14.798981,-6.640015 14.798981,-14.800964l0,-299.232025l-159.575989,159.575989c-8.278992,8.281006 -18.735016,13.846985 -30.235992,16.09201l-48.550003,9.473999c-3.522995,0.686981 -7.119003,1.033997 -10.686005,1.033997c-16.636993,0 -32.261002,-7.386017 -42.866989,-20.263c-10.589005,-12.854004 -14.832001,-29.608002 -11.639999,-45.968018l9.472992,-48.550995c2.244003,-11.496002 7.807007,-21.950989 16.089005,-30.231995l160.25,-160.248993l-300.576004,0zm169.270004,262.421997c-3.790009,0 -7.362,-1.697998 -9.80101,-4.658997c-2.42099,-2.938995 -3.389999,-6.776001 -2.65799,-10.526001l9.472,-48.549011c0.603989,-3.096985 2.103989,-5.914001 4.334991,-8.145996l207.800018,-207.798988l57.829987,57.829994l-207.799988,207.799011c-2.229004,2.230988 -5.046997,3.72998 -8.145996,4.335999l-48.547012,9.473999c-0.82901,0.158997 -1.665009,0.23999 -2.485001,0.23999zm209.148987,-278.264999l-207.092987,207.091995c-2.089996,2.09201 -3.49501,4.730011 -4.061005,7.631012l-9.472,48.548981c-0.673996,3.455994 0.218002,6.990997 2.447998,9.699005c2.735001,3.321014 7.031006,4.902008 11.322998,4.071014l48.547012,-9.473022c2.902985,-0.565979 5.541992,-1.971985 7.630981,-4.061981l207.093018,-207.091995l-56.416016,-56.415009zm87.415985,26.831009l-57.830017,-57.830002l33.162018,-33.164005l57.829987,57.829998l-33.161987,33.164009zm-56.415985,-57.830002l56.415985,56.416l31.747986,-31.749001l-56.415985,-56.416004l-31.747986,31.749004z"/>
   </g>
  </g>
  <g id="svg_5"/>
  <g id="svg_6"/>
  <g id="svg_7"/>
  <g id="svg_8"/>
  <g id="svg_9"/>
  <g id="svg_10"/>
  <g id="svg_11"/>
  <g id="svg_12"/>
  <g id="svg_13"/>
  <g id="svg_14"/>
  <g id="svg_15"/>
  <g id="svg_16"/>
  <g id="svg_17"/>
  <g id="svg_18"/>
  <g id="svg_19"/>
 </g>
</svg>